<svg width="6" height="10" viewBox="0 0 6 10" fill="none" xmlns="http://www.w3.org/2000/svg">
<path fill-rule="evenodd" clip-rule="evenodd" d="M0.285648 9.70691C0.102748 9.51914 0 9.26452 0 8.99902C0 8.73352 0.102748 8.47889 0.285648 8.29113L3.49836 4.99399L0.285648 1.69684C0.107931 1.508 0.00959397 1.25508 0.0118168 0.992558C0.0140397 0.730031 0.116645 0.478903 0.297533 0.293262C0.47842 0.107621 0.723118 0.00231914 0.978923 3.785e-05C1.23473 -0.00224344 1.48117 0.0986782 1.66517 0.281065L5.56765 4.2861C5.75055 4.47386 5.8533 4.72849 5.8533 4.99399C5.8533 5.25948 5.75055 5.51411 5.56765 5.70188L1.66517 9.70691C1.48222 9.89462 1.23411 10.0001 0.975411 10.0001C0.716712 10.0001 0.468604 9.89462 0.285648 9.70691Z" fill="#4D4D4D"/>
</svg>
