<svg width="48" height="48" viewBox="0 0 48 48" fill="none" xmlns="http://www.w3.org/2000/svg">
<path fill-rule="evenodd" clip-rule="evenodd" d="M6 14.25C6 13.0074 7.00736 12 8.25 12H39.75C40.9926 12 42 13.0074 42 14.25C42 15.4926 40.9926 16.5 39.75 16.5H8.25C7.00736 16.5 6 15.4926 6 14.25Z" fill="black"/>
<path fill-rule="evenodd" clip-rule="evenodd" d="M6 24C6 22.7574 7.00736 21.75 8.25 21.75H39.75C40.9926 21.75 42 22.7574 42 24C42 25.2426 40.9926 26.25 39.75 26.25H8.25C7.00736 26.25 6 25.2426 6 24Z" fill="black"/>
<path fill-rule="evenodd" clip-rule="evenodd" d="M6 33.75C6 32.5074 7.00736 31.5 8.25 31.5H39.75C40.9926 31.5 42 32.5074 42 33.75C42 34.9926 40.9926 36 39.75 36H8.25C7.00736 36 6 34.9926 6 33.75Z" fill="black"/>
</svg>
