<svg width="20" height="21" viewBox="0 0 20 21" fill="none" xmlns="http://www.w3.org/2000/svg">
<path fill-rule="evenodd" clip-rule="evenodd" d="M9.61181 0C14.9117 0 19.2226 4.42421 19.2226 9.86331C19.2226 12.4295 18.263 14.7699 16.6928 16.5265L19.7826 19.6909C20.0718 19.9876 20.0728 20.4677 19.7836 20.7645C19.6395 20.9144 19.449 20.9884 19.2595 20.9884C19.071 20.9884 18.8815 20.9144 18.7365 20.7665L15.6093 17.5662C13.9643 18.9182 11.8785 19.7276 9.61181 19.7276C4.31194 19.7276 0 15.3024 0 9.86331C0 4.42421 4.31194 0 9.61181 0ZM9.61181 1.5193C5.12814 1.5193 1.48041 5.26185 1.48041 9.86331C1.48041 14.4648 5.12814 18.2083 9.61181 18.2083C14.0945 18.2083 17.7422 14.4648 17.7422 9.86331C17.7422 5.26185 14.0945 1.5193 9.61181 1.5193Z" fill="#0A0A0A"/>
</svg>
