<svg width="20" height="17" viewBox="0 0 20 17" fill="none" xmlns="http://www.w3.org/2000/svg">
<path d="M20 8.42737C20 8.8997 19.658 9.29005 19.2143 9.35183L19.0909 9.36035L3.1103 9.3596L8.88362 15.2604C9.2394 15.624 9.24064 16.2147 8.88639 16.5798C8.56434 16.9118 8.05935 16.943 7.70289 16.6728L7.60074 16.5827L0.267408 9.089C0.220509 9.04108 0.179776 8.98921 0.145203 8.93444C0.135438 8.91796 0.1255 8.90109 0.116076 8.88388C0.107408 8.86914 0.0995755 8.85382 0.0921865 8.83834C0.0819226 8.81581 0.0718951 8.79254 0.0627915 8.76879C0.0553946 8.75048 0.0492175 8.73267 0.0435849 8.71472C0.0368873 8.69246 0.0303785 8.66874 0.0247816 8.64466C0.0206192 8.62784 0.0173251 8.61166 0.0144502 8.59542C0.010407 8.57124 0.0069658 8.54623 0.00451009 8.52092C0.00239015 8.50162 0.00111461 8.48249 0.000409285 8.46335C0.000226498 8.45174 -1.98682e-06 8.43958 -1.98682e-06 8.42737L0.000452995 8.39123C0.00115037 8.37292 0.00236829 8.35463 0.00411073 8.33638L-1.98682e-06 8.42737C-1.98682e-06 8.3685 0.00531077 8.3109 0.0154734 8.25505C0.0178297 8.24171 0.0206391 8.22801 0.0237485 8.21438C0.0302057 8.18629 0.0376682 8.15925 0.0462612 8.13273C0.0504792 8.11956 0.0553926 8.10548 0.0606438 8.09151C0.0712673 8.06344 0.0828147 8.03668 0.0955184 8.01061C0.101419 7.99835 0.108027 7.98552 0.11495 7.97282C0.12631 7.9521 0.138013 7.9324 0.150389 7.91321C0.159121 7.89962 0.168788 7.88548 0.178885 7.87157L0.186753 7.86081C0.211247 7.82798 0.237817 7.79686 0.266264 7.76766L0.267355 7.76679L7.60069 0.271898C7.95644 -0.0916966 8.53205 -0.0904736 8.88633 0.274629C9.20841 0.606541 9.23671 1.12492 8.97191 1.4896L8.88367 1.59405L3.11273 7.49365L19.0909 7.4944C19.593 7.4944 20 7.91211 20 8.42737Z" fill="#0A0A0A"/>
</svg>
