<svg width="56" height="32" viewBox="0 0 56 32" fill="none" xmlns="http://www.w3.org/2000/svg">
<path d="M52.9542 31.0959C55.2028 30.4962 56.6091 28.1357 55.74 25.9769C54.8596 23.79 53.9495 22.7717 51.5281 18.9668C47.543 14.1399 42.8293 9.25216 37.1397 6.19571C31.4502 3.13925 25.162 1.14372 18.6342 0.323033C13.3272 -0.34416 8.54651 0.0733496 3.16989 1.10511C1.03061 1.51563 -0.331361 3.60403 0.0700768 5.74503C0.497355 8.02385 2.74591 9.46433 5.03267 9.08183C9.12475 8.39737 13.4399 8.13133 17.4004 8.62925C22.7426 9.30087 27.8886 10.934 32.5448 13.4353C37.1573 15.9132 40.6749 19.4649 43.9108 23.3714C43.972 23.4453 44.0335 23.5176 44.0957 23.5907C44.512 24.0801 46.2539 26.1781 47.8691 28.8679C48.9226 30.6223 50.9768 31.6232 52.9542 31.0959Z" fill="#1C64F2"/>
</svg>
