<svg width="23" height="20" viewBox="0 0 23 20" fill="none" xmlns="http://www.w3.org/2000/svg">
<path fill-rule="evenodd" clip-rule="evenodd" d="M2.875 0C2.1125 0 1.38123 0.301019 0.842068 0.836838C0.302901 1.37266 0 2.09938 0 2.85714V17.1429C0 17.9006 0.302901 18.6273 0.842068 19.1632C1.38123 19.699 2.1125 20 2.875 20H20.125C20.8875 20 21.6188 19.699 22.1579 19.1632C22.6971 18.6273 23 17.9006 23 17.1429V2.85714C23 2.09938 22.6971 1.37266 22.1579 0.836838C21.6188 0.301019 20.8875 0 20.125 0H2.875ZM20.125 17.1429H2.875L8.625 5.71429L12.9375 14.2857L15.8125 8.57143L20.125 17.1429Z" fill="#111928"/>
</svg>
