<svg width="27" height="28" viewBox="0 0 27 28" fill="none" xmlns="http://www.w3.org/2000/svg">
<path fill-rule="evenodd" clip-rule="evenodd" d="M13.5 28C17.0804 28 20.5142 26.525 23.0459 23.8995C25.5777 21.274 27 17.713 27 14C27 10.287 25.5777 6.72601 23.0459 4.10051C20.5142 1.475 17.0804 0 13.5 0C9.91958 0 6.4858 1.475 3.95406 4.10051C1.42232 6.72601 0 10.287 0 14C0 17.713 1.42232 21.274 3.95406 23.8995C6.4858 26.525 9.91958 28 13.5 28ZM12.7491 9.044C12.4949 8.86816 12.1995 8.76717 11.8944 8.7518C11.5892 8.73643 11.2858 8.80725 11.0164 8.95672C10.747 9.10619 10.5218 9.32869 10.3648 9.60048C10.2078 9.87228 10.125 10.1832 10.125 10.5V17.5C10.125 17.8168 10.2078 18.1277 10.3648 18.3995C10.5218 18.6713 10.747 18.8938 11.0164 19.0433C11.2858 19.1927 11.5892 19.2636 11.8944 19.2482C12.1995 19.2328 12.4949 19.1318 12.7491 18.956L17.8116 15.456C18.0427 15.2962 18.2322 15.0797 18.3632 14.8257C18.4943 14.5717 18.5629 14.2881 18.5629 14C18.5629 13.7119 18.4943 13.4283 18.3632 13.1743C18.2322 12.9203 18.0427 12.7038 17.8116 12.544L12.7491 9.044Z" fill="#111928"/>
</svg>
