<svg width="22" height="22" viewBox="0 0 22 22" fill="none" xmlns="http://www.w3.org/2000/svg">
<path d="M22 1.37422C21.9999 1.17086 21.9547 0.970065 21.8676 0.786291C21.7805 0.602517 21.6538 0.440343 21.4965 0.311455C21.3392 0.182566 21.1553 0.090171 20.958 0.0409261C20.7607 -0.0083188 20.5549 -0.0131875 20.3555 0.0266707L6.6055 2.77677C6.29391 2.83906 6.01351 3.00734 5.81197 3.253C5.61043 3.49867 5.50019 3.80656 5.5 4.12433V16.6565C5.04924 16.5515 4.58784 16.4989 4.125 16.4998C1.84663 16.4998 0 17.7305 0 19.2499C0 20.7693 1.84663 22 4.125 22C6.40337 22 8.25 20.7693 8.25 19.2499V8.00197L19.25 5.80189V13.9064C18.7992 13.8014 18.3378 13.7488 17.875 13.7497C15.5966 13.7497 13.75 14.9804 13.75 16.4998C13.75 18.0192 15.5966 19.2499 17.875 19.2499C20.1534 19.2499 22 18.0192 22 16.4998V1.37422Z" fill="#111928"/>
</svg>
