<svg width="15" height="9" viewBox="0 0 15 9" fill="none" xmlns="http://www.w3.org/2000/svg">
<path fill-rule="evenodd" clip-rule="evenodd" d="M14.1876 8.56079C13.9132 8.84201 13.541 9 13.153 9C12.7649 9 12.3927 8.84201 12.1183 8.56079L7.29921 3.62093L2.48011 8.56079C2.2041 8.83405 1.83443 8.98525 1.45072 8.98183C1.06701 8.97841 0.699965 8.82065 0.428631 8.54251C0.157298 8.26438 0.0033896 7.88814 5.52574e-05 7.49481C-0.00327908 7.10149 0.144228 6.72256 0.410805 6.43963L6.26456 0.439197C6.53899 0.15797 6.91116 -1.48298e-05 7.29921 -1.48472e-05C7.68726 -1.48646e-05 8.05942 0.15797 8.33386 0.439197L14.1876 6.43963C14.462 6.72095 14.6161 7.10244 14.6161 7.50021C14.6161 7.89799 14.462 8.27948 14.1876 8.56079Z" fill="#4D4D4D"/>
</svg>
